<?xml version="1.0" encoding="UTF-8" standalone="no"?>
<svg
   xmlns:dc="http://purl.org/dc/elements/1.1/"
   xmlns:cc="http://creativecommons.org/ns#"
   xmlns:rdf="http://www.w3.org/1999/02/22-rdf-syntax-ns#"
   xmlns:svg="http://www.w3.org/2000/svg"
   xmlns="http://www.w3.org/2000/svg"
   xmlns:sodipodi="http://sodipodi.sourceforge.net/DTD/sodipodi-0.dtd"
   xmlns:inkscape="http://www.inkscape.org/namespaces/inkscape"
   id="svg8"
   version="1.1"
   viewBox="0 0 65.841072 76.026718"
   height="76.026718mm"
   width="65.841072mm"
   sodipodi:docname="graphjiz.svg"
   inkscape:version="0.92.4 (5da689c313, 2019-01-14)">
  <sodipodi:namedview
     pagecolor="#ffffff"
     bordercolor="#666666"
     borderopacity="1"
     objecttolerance="10"
     gridtolerance="10"
     guidetolerance="10"
     inkscape:pageopacity="0"
     inkscape:pageshadow="2"
     inkscape:window-width="1334"
     inkscape:window-height="736"
     id="namedview4757"
     showgrid="false"
     inkscape:zoom="1.3379675"
     inkscape:cx="-43.954141"
     inkscape:cy="117.93432"
     inkscape:window-x="32"
     inkscape:window-y="0"
     inkscape:window-maximized="1"
     inkscape:current-layer="layer1"
     fit-margin-top="0"
     fit-margin-left="0"
     fit-margin-right="0"
     fit-margin-bottom="0" />
  <defs
     id="defs2" />
  <metadata
     id="metadata5">
    <rdf:RDF>
      <cc:Work
         rdf:about="">
        <dc:format>image/svg+xml</dc:format>
        <dc:type
           rdf:resource="http://purl.org/dc/dcmitype/StillImage" />
        <dc:title></dc:title>
      </cc:Work>
    </rdf:RDF>
  </metadata>
  <g
     id="layer1"
     transform="translate(-67.439175,-81.920577)">
    <path
       style="opacity:1;vector-effect:none;fill:#f7f7f7;fill-opacity:1;stroke:#aaaaaa;stroke-width:10;stroke-linecap:square;stroke-linejoin:miter;stroke-miterlimit:4;stroke-dasharray:none;stroke-dashoffset:0;stroke-opacity:1;paint-order:stroke markers fill"
       d="m 100.35971,152.17379 -27.920534,-16.11993 -10e-7,-32.23985 27.920535,-16.11993 27.92054,16.11993 v 32.23985 z"
       id="path10970"
       inkscape:connector-curvature="0" />
    <path
       style="fill:#aaaaaa;fill-opacity:1;stroke-width:0.24834879"
       d="m 107.79009,99.394091 c -0.51843,2.931929 0.97848,13.259819 -0.62883,11.962169 -3.93468,-2.57146 -6.23421,2.85395 -7.289129,5.74918 -1.226075,4.87145 -1.696333,-1.20348 -3.164249,-2.68576 -3.640829,-6.94931 -13.876524,-4.33882 -16.959705,1.77828 -2.17541,2.07863 -3.137624,7.64564 1.307131,7.15714 3.19621,-1.47347 4.663628,-6.79113 9.32958,-4.93886 5.322919,3.01203 4.347978,11.05222 2.903959,16.07431 -0.4756,3.54315 -4.120409,9.45581 0.102625,11.91443 5.059992,-0.13045 4.654781,-7.22935 5.875674,-10.71737 6.089934,2.52522 15.462684,1.0597 16.853384,-6.48433 0.59794,-10.47487 0.0853,-21.00045 0.26948,-31.492143 -2.12954,0.939998 -9.76927,-2.40503 -8.59992,1.682954 z m 0,14.085119 c -0.82607,4.86761 1.40724,10.76658 -0.96799,15.20525 -1.93028,1.24915 -7.537511,0.9472 -4.85636,-2.35027 1.64033,-4.54705 4.08104,-8.76896 5.82435,-13.25464 z"
       id="path10950"
       inkscape:connector-curvature="0" />
    <text
       id="text10944"
       y="193.56668"
       x="75.904549"
       style="font-style:normal;font-weight:normal;font-size:10.58333302px;line-height:1.25;font-family:sans-serif;letter-spacing:0px;word-spacing:0px;fill:#000000;fill-opacity:1;stroke:none;stroke-width:0.26458332"
       xml:space="preserve"><tspan
         style="stroke-width:0.26458332"
         y="202.93045"
         x="75.904549"
         id="tspan10942" /></text>
    <text
       id="text10948"
       y="190.62672"
       x="83.92263"
       style="font-style:normal;font-weight:normal;font-size:10.58333302px;line-height:1.25;font-family:sans-serif;letter-spacing:0px;word-spacing:0px;fill:#000000;fill-opacity:1;stroke:none;stroke-width:0.26458332"
       xml:space="preserve"><tspan
         style="stroke-width:0.26458332"
         y="199.99049"
         x="83.92263"
         id="tspan10946" /></text>
  </g>
</svg>
